<?xml version="1.0" encoding="UTF-8"?>
<svg id="Camada_1" data-name="Camada 1" xmlns="http://www.w3.org/2000/svg" viewBox="0 0 939.24 273.38">
  <defs>
    <style>
      .cls-1 {
        fill: #67baa0;
      }

      .cls-1, .cls-2 {
        stroke-width: 0px;
      }

      .cls-2 {
        fill: #e59429;
      }
    </style>
  </defs>
  <g id="hRUjxh.tif">
    <g>
      <path class="cls-2" d="M64.54,73.15c7.77,6.9,14.74,12.59,21.09,18.89,5.01,4.97,10.46,6.85,17.51,6.75,23.61-.35,47.22-.21,70.83-.07,4.65.03,8.38-1.28,11.81-4.43,7.36-6.78,14.93-13.33,23.72-21.14,0,3.37,0,5.23,0,7.09,0,31.65-.01,63.3,0,94.95,0,23.34,12.38,42.13,32.83,49.9,20.46,7.78,42.14,2.05,57.75-15.29.45-.5.72-1.14,1.66-2.67,1.37,1.86,2.13,3.12,3.09,4.18,14.43,15.94,36.48,21.31,56.43,13.76,19.8-7.49,32.76-26.23,32.81-47.87.09-36.67.03-73.35.03-110.02,0-1.78,0-3.56,0-6.43,2.72,1.5,4.75,2.24,6.3,3.54,12.7,10.65,21.4,23.93,25.13,40.12.91,3.95.7,8.35.07,12.41-.78,5.09-3.99,8.66-8.99,10.57-6.59,2.52-9.3,7.67-7.21,13.24,2.11,5.6,7.68,7.89,14.17,5.45,13.16-4.95,20.55-14.8,22.23-28.51.7-5.7.4-11.81-.86-17.42-4.22-18.79-13.5-34.96-27.81-47.87-4.5-4.06-9.96-7.59-15.6-9.75-14.54-5.55-27.41,3.69-27.44,19.25-.08,38.18.01,76.36-.05,114.54-.03,16.04-9.86,28.25-24.99,31.41-16.92,3.53-33.95-8.22-36.85-25.25-.51-3.02.49-4.18,3-5.8,5.55-3.6,11.35-7.3,15.71-12.16,8.48-9.47,6.48-19.02-4.64-25.31-10.99-6.22-22.99-7.26-35.07-4.75-5.75,1.2-11.59,3.54-16.53,6.71-8.35,5.36-9.89,13.49-3.62,21.08,4.57,5.52,10.58,10.12,16.66,14.04,3.38,2.19,4.18,3.9,3.38,7.47-3.46,15.44-17.41,25.73-33.36,24.44-15.3-1.24-27.63-13.99-28.22-29.65-.35-9.2-.08-18.42-.07-27.63,0-32.32.06-64.64-.06-96.96-.01-2.89-.45-6.18-1.87-8.6-3.23-5.51-10.21-5.89-15.61-1.16-11.96,10.49-23.75,21.17-35.81,31.55-1.82,1.56-4.67,2.68-7.05,2.71-21.43.21-42.87.19-64.3,0-2.24-.02-4.93-1.07-6.63-2.54-11.79-10.17-23.42-20.53-35-30.94-3.79-3.41-7.77-5.36-12.74-3.03-4.74,2.22-5.87,6.36-5.87,11.25.05,54.26.03,108.51.05,162.77,0,8.04,3.99,12.63,10.54,12.34,4.79-.21,8.63-3.55,9.27-8.3.27-1.98.19-4.01.19-6.02,0-44.54,0-89.09,0-133.63,0-1.93,0-3.86,0-7.22Z"/>
      <path class="cls-2" d="M156.5,179.13c-1.73-1.9-3.57-5.46-6.43-6.76-8.41-3.82-17.32-3.62-25.9-.25-5.68,2.23-7.56,7.03-5.36,12.74,2.32,6.01,6.45,10.5,12.25,13.4,4.22,2.11,8.45,1.96,12.52-.3,6.79-3.77,11.26-9.29,12.94-18.82Z"/>
      <path class="cls-2" d="M91.53,139.36c-.01,6.73,5.65,12.38,12.43,12.41,6.8.03,12.37-5.53,12.41-12.39.04-6.79-5.58-12.42-12.38-12.41-6.8.01-12.44,5.62-12.45,12.38Z"/>
      <path class="cls-2" d="M170.13,151.77c6.83-.04,12.41-5.77,12.29-12.63-.11-6.66-5.59-12.11-12.24-12.18-6.9-.07-12.54,5.5-12.53,12.38.01,6.92,5.58,12.47,12.47,12.43Z"/>
      <path class="cls-2" d="M334.18,74.33c-6.93.28-12.07,6.05-11.66,13.07.39,6.74,5.87,11.68,12.73,11.49,6.93-.2,12.42-6.03,12.03-12.79-.4-6.91-6.12-12.06-13.1-11.78Z"/>
      <path class="cls-2" d="M268.61,98.94c7.01.08,12.57-5.34,12.56-12.26,0-6.94-5.51-12.39-12.49-12.36-6.73.03-12.13,5.3-12.33,12.03-.21,6.89,5.27,12.51,12.26,12.59Z"/>
    </g>
  </g>
  <g>
    <g>
      <path class="cls-1" d="M519.75,126.37c-1.39-1.23-2.08-2.92-2.08-5.08v-57.96c0-5.39,1.56-9.58,4.68-12.59,3.12-3,7.45-4.5,12.99-4.5h19.51c11.7,0,20.59,2.42,26.67,7.27,6.08,4.85,9.12,11.97,9.12,21.36s-2.96,16.51-8.89,21.36c-5.93,4.85-14.66,7.27-26.21,7.27h-22.52v17.78c0,2.08-.71,3.75-2.14,5.02-1.43,1.27-3.29,1.91-5.6,1.91s-4.16-.62-5.54-1.85ZM575.17,74.87c0-11.16-6.58-16.74-19.75-16.74h-17.44c-1.54,0-2.75.5-3.64,1.5-.89,1-1.33,2.39-1.33,4.16v27.83h22.4c13.16,0,19.75-5.58,19.75-16.74Z"/>
      <path class="cls-1" d="M525.29,132.72c-3.43,0-6.3-1-8.53-2.98-1.64-1.45-3.59-4.1-3.59-8.45v-57.96c0-6.63,2.04-11.96,6.05-15.83,3.97-3.82,9.39-5.76,16.11-5.76h19.51c12.69,0,22.61,2.78,29.48,8.26,7.18,5.72,10.82,14.1,10.82,24.88s-3.55,19.12-10.54,24.84c-6.73,5.5-16.5,8.29-29.06,8.29h-18.02v13.28c0,3.36-1.26,6.25-3.64,8.38-2.27,2.02-5.16,3.05-8.6,3.05ZM535.34,50.74c-4.37,0-7.6,1.06-9.87,3.24-2.22,2.14-3.3,5.19-3.3,9.34v57.96c0,1.21.38,1.55.57,1.72.2.18.8.71,2.55.71s2.39-.58,2.61-.77c.3-.27.63-.65.63-1.66v-22.28h27.02c10.43,0,18.29-2.11,23.36-6.26,4.87-3.99,7.24-9.83,7.24-17.88s-2.43-13.86-7.43-17.84c-5.24-4.18-13.27-6.29-23.87-6.29h-19.51ZM555.43,96.11h-26.9v-32.33c0-2.89.83-5.29,2.46-7.14,1.75-1.98,4.17-3.02,7.01-3.02h17.44c21.1,0,24.25,13.31,24.25,21.24s-3.15,21.24-24.25,21.24ZM537.53,87.11h17.9c13.43,0,15.25-6.19,15.25-12.24s-1.81-12.24-15.25-12.24h-17.44c-.14,0-.24.01-.29.02-.06.12-.17.47-.17,1.14v23.33Z"/>
    </g>
    <g>
      <path class="cls-1" d="M607.27,122.44c-3.23-3.08-4.85-7.39-4.85-12.93v-46.19c0-5.39,1.56-9.58,4.68-12.59,3.12-3,7.45-4.5,12.99-4.5h35.91c2.31,0,4.08.52,5.31,1.56,1.23,1.04,1.85,2.52,1.85,4.45s-.63,3.29-1.91,4.33c-1.27,1.04-3.02,1.56-5.25,1.56h-33.25c-1.54,0-2.75.5-3.64,1.5-.89,1-1.33,2.39-1.33,4.16v16.05h29.44c2.31,0,4.08.52,5.31,1.56,1.23,1.04,1.85,2.52,1.85,4.45s-.64,3.29-1.91,4.33c-1.27,1.04-3.02,1.56-5.25,1.56h-29.44v17.78c0,1.77.44,3.16,1.33,4.16.88,1,2.1,1.5,3.64,1.5h35.79c2.31,0,4.08.52,5.31,1.56,1.23,1.04,1.85,2.52,1.85,4.45s-.63,3.29-1.91,4.33c-1.27,1.04-3.02,1.56-5.25,1.56h-37.64c-5.85,0-10.39-1.54-13.63-4.62Z"/>
      <path class="cls-1" d="M658.54,131.56h-37.64c-7.02,0-12.65-1.97-16.73-5.86-4.14-3.95-6.25-9.39-6.25-16.19v-46.19c0-6.63,2.04-11.96,6.05-15.83,3.97-3.82,9.39-5.76,16.11-5.76h35.91c3.39,0,6.15.88,8.21,2.62,1.57,1.33,3.45,3.78,3.45,7.89,0,3.21-1.23,5.91-3.56,7.81-2.09,1.71-4.82,2.58-8.1,2.58h-33.25c-.14,0-.24.01-.29.02-.06.12-.17.47-.17,1.14v11.55h24.94c3.39,0,6.15.88,8.21,2.62,1.57,1.33,3.45,3.77,3.45,7.89,0,3.21-1.23,5.91-3.55,7.81-2.09,1.71-4.82,2.58-8.1,2.58h-24.94v13.28c0,.68.12,1.02.17,1.14.05.01.15.02.29.02h35.79c3.39,0,6.15.88,8.21,2.62,1.57,1.33,3.45,3.77,3.45,7.89,0,3.21-1.23,5.91-3.56,7.81-2.09,1.71-4.81,2.58-8.1,2.58ZM620.09,50.74c-4.37,0-7.6,1.06-9.87,3.24-2.22,2.14-3.3,5.19-3.3,9.34v46.19c0,4.3,1.13,7.46,3.45,9.67h0c2.39,2.27,5.83,3.38,10.52,3.38h37.64c1.12,0,1.98-.19,2.4-.54.11-.09.26-.21.26-.85,0-.8-.19-.96-.25-1.01-.14-.12-.72-.5-2.41-.5h-35.79c-3.59,0-5.79-1.64-7.01-3.02-1.63-1.84-2.46-4.24-2.46-7.14v-22.28h33.94c1.12,0,1.98-.19,2.4-.54.11-.09.25-.21.25-.85,0-.8-.19-.96-.25-1.01-.14-.11-.72-.5-2.41-.5h-33.94v-20.55c0-2.89.83-5.29,2.46-7.14,1.75-1.98,4.17-3.02,7.01-3.02h33.25c1.12,0,1.98-.19,2.41-.54.11-.09.25-.21.25-.85,0-.8-.19-.96-.25-1.01-.13-.11-.72-.5-2.41-.5h-35.91Z"/>
    </g>
    <g>
      <path class="cls-1" d="M705.53,126.37c-1.38-1.23-2.08-2.92-2.08-5.08v-63.16h-22.29c-2.23,0-3.98-.52-5.25-1.56-1.27-1.04-1.91-2.48-1.91-4.33s.62-3.41,1.85-4.45c1.23-1.04,3-1.56,5.31-1.56h59.93c2.31,0,4.08.52,5.31,1.56,1.23,1.04,1.85,2.52,1.85,4.45s-.64,3.29-1.91,4.33c-1.27,1.04-3.02,1.56-5.25,1.56h-22.29v63.16c0,2.08-.71,3.75-2.14,5.02-1.42,1.27-3.29,1.91-5.6,1.91s-4.16-.62-5.54-1.85Z"/>
      <path class="cls-1" d="M711.08,132.72c-3.43,0-6.3-1-8.53-2.98h0c-1.64-1.46-3.59-4.1-3.59-8.45v-58.66h-17.79c-3.29,0-6.01-.87-8.1-2.58-2.33-1.91-3.56-4.61-3.56-7.81,0-4.11,1.87-6.56,3.45-7.89,2.06-1.74,4.82-2.62,8.21-2.62h59.93c3.39,0,6.15.88,8.21,2.62,1.57,1.33,3.45,3.78,3.45,7.89,0,3.21-1.23,5.91-3.55,7.81-2.09,1.71-4.82,2.58-8.1,2.58h-17.79v58.66c0,3.36-1.26,6.26-3.64,8.38-2.27,2.02-5.16,3.05-8.59,3.05ZM708.52,123c.2.18.8.71,2.55.71s2.39-.58,2.61-.76c.3-.27.63-.65.63-1.66V53.63h26.79c1.12,0,1.98-.19,2.41-.54.11-.09.25-.21.25-.85,0-.8-.19-.96-.25-1.01-.13-.11-.72-.5-2.41-.5h-59.93c-1.69,0-2.27.38-2.41.5-.06.05-.25.21-.25,1.01,0,.64.15.76.26.85.43.35,1.28.54,2.4.54h26.79v67.66c0,1.21.38,1.55.57,1.72h0Z"/>
    </g>
    <g>
      <path class="cls-1" d="M519.75,227.77c-1.39-1.23-2.08-2.92-2.08-5.08v-57.96c0-5.39,1.56-9.58,4.68-12.59,3.12-3,7.45-4.5,12.99-4.5h19.51c11.7,0,20.59,2.42,26.67,7.27,6.08,4.85,9.12,11.97,9.12,21.36s-2.96,16.51-8.89,21.36c-5.93,4.85-14.66,7.27-26.21,7.27h-22.52v17.78c0,2.08-.71,3.75-2.14,5.02-1.43,1.27-3.29,1.91-5.6,1.91s-4.16-.62-5.54-1.85ZM575.17,176.27c0-11.16-6.58-16.74-19.75-16.74h-17.44c-1.54,0-2.75.5-3.64,1.5-.89,1-1.33,2.39-1.33,4.16v27.83h22.4c13.16,0,19.75-5.58,19.75-16.74Z"/>
      <path class="cls-1" d="M525.29,234.12c-3.43,0-6.3-1-8.53-2.98-1.64-1.45-3.59-4.1-3.59-8.45v-57.96c0-6.63,2.04-11.96,6.05-15.83,3.97-3.82,9.39-5.76,16.11-5.76h19.51c12.69,0,22.61,2.78,29.48,8.26,7.18,5.72,10.82,14.1,10.82,24.88s-3.55,19.12-10.54,24.84c-6.73,5.5-16.5,8.29-29.06,8.29h-18.02v13.28c0,3.36-1.26,6.25-3.64,8.38-2.27,2.02-5.16,3.05-8.6,3.05ZM535.34,152.13c-4.37,0-7.6,1.06-9.87,3.24-2.22,2.14-3.3,5.19-3.3,9.34v57.96c0,1.21.38,1.55.57,1.72.2.18.8.71,2.55.71s2.39-.58,2.61-.77c.3-.27.63-.65.63-1.66v-22.28h27.02c10.43,0,18.29-2.11,23.36-6.26,4.87-3.99,7.24-9.83,7.24-17.88s-2.43-13.86-7.43-17.84c-5.24-4.18-13.27-6.29-23.87-6.29h-19.51ZM555.43,197.51h-26.9v-32.33c0-2.89.83-5.29,2.46-7.14,1.75-1.98,4.17-3.02,7.01-3.02h17.44c21.1,0,24.25,13.31,24.25,21.24s-3.15,21.24-24.25,21.24ZM537.53,188.51h17.9c13.43,0,15.25-6.19,15.25-12.24s-1.81-12.24-15.25-12.24h-17.44c-.14,0-.24.01-.29.02-.06.12-.17.47-.17,1.14v23.33Z"/>
    </g>
    <g>
      <path class="cls-1" d="M602.42,164.72c0-5.39,1.56-9.58,4.68-12.59,3.12-3,7.45-4.5,12.99-4.5h20.55c11.47,0,20.13,2.23,25.98,6.7,5.85,4.47,8.78,11.12,8.78,19.98,0,8.24-2.44,14.66-7.33,19.28-4.89,4.62-11.45,6.93-19.69,6.93l17.55,17.44c1.39,1.39,2.08,2.96,2.08,4.73s-.81,3.46-2.42,4.85c-1.69,1.31-3.35,1.96-4.96,1.96-2.23,0-4.27-1-6.12-3l-24.94-25.52h-11.78v21.71c0,2.16-.73,3.85-2.19,5.08-1.46,1.23-3.31,1.85-5.54,1.85s-4.16-.62-5.54-1.85-2.08-2.92-2.08-5.08v-57.96ZM640.18,189.09c5.08,0,9.04-.5,11.89-1.5,2.85-1,4.87-2.56,6.06-4.68,1.19-2.12,1.79-4.98,1.79-8.6,0-5.23-1.6-9.01-4.79-11.32-3.2-2.31-8.18-3.46-14.95-3.46h-17.44c-1.54,0-2.75.5-3.64,1.5-.89,1-1.33,2.39-1.33,4.16v23.9h22.4Z"/>
      <path class="cls-1" d="M610.04,234.12c-3.43,0-6.3-1-8.53-2.98-1.64-1.45-3.59-4.1-3.59-8.45v-57.96c0-6.63,2.04-11.96,6.05-15.83,3.97-3.82,9.39-5.76,16.11-5.76h20.55c12.42,0,22.08,2.56,28.71,7.62,7,5.34,10.55,13.27,10.55,23.55,0,9.48-2.94,17.07-8.74,22.55-3.59,3.4-7.95,5.74-13.01,7.02l10.96,10.88c2.23,2.23,3.41,4.97,3.41,7.93,0,2.21-.69,5.43-4,8.27l-.18.15c-2.49,1.92-5.09,2.9-7.71,2.9-2.42,0-6-.77-9.38-4.4l-23.58-24.12h-5.38v17.21c0,3.48-1.31,6.43-3.79,8.52-2.29,1.93-5.13,2.91-8.44,2.91ZM620.09,152.13c-4.37,0-7.6,1.06-9.87,3.24-2.22,2.14-3.3,5.19-3.3,9.34v57.96c0,1.21.38,1.55.57,1.72.2.18.8.71,2.55.71,1.53,0,2.24-.45,2.65-.79.22-.18.59-.5.59-1.64v-26.21h18.17l26.35,26.97c1.29,1.39,2.22,1.55,2.81,1.55.7,0,1.52-.5,2.12-.95.77-.69.77-1.12.77-1.36,0-.41-.09-.88-.76-1.55l-25.29-25.12h10.92c7.11,0,12.54-1.86,16.6-5.7,3.98-3.77,5.92-9,5.92-16.01,0-7.44-2.29-12.8-7.01-16.4-5.02-3.83-12.84-5.77-23.25-5.77h-20.55ZM640.18,193.59h-26.9v-28.4c0-2.89.83-5.29,2.46-7.14,1.75-1.98,4.17-3.02,7.01-3.02h17.44c7.82,0,13.57,1.41,17.59,4.32,4.42,3.19,6.66,8.23,6.66,14.96,0,4.45-.77,7.98-2.37,10.81-1.74,3.09-4.6,5.35-8.49,6.71-3.36,1.18-7.74,1.75-13.38,1.75ZM622.28,184.59h17.9c4.55,0,8.05-.42,10.4-1.25,1.8-.63,2.99-1.5,3.63-2.64.79-1.4,1.21-3.61,1.21-6.39,0-5.55-2.21-7.15-2.93-7.67-1.65-1.19-5.12-2.61-12.32-2.61h-17.44c-.14,0-.24.01-.29.02-.06.12-.17.47-.17,1.14v19.4Z"/>
    </g>
    <g>
      <path class="cls-1" d="M692.72,227.77c-1.39-1.23-2.08-2.92-2.08-5.08v-69.28c0-2.15.69-3.85,2.08-5.08,1.39-1.23,3.23-1.85,5.54-1.85s4.08.62,5.54,1.85c1.46,1.23,2.19,2.93,2.19,5.08v69.28c0,2.16-.73,3.85-2.19,5.08-1.46,1.23-3.31,1.85-5.54,1.85s-4.16-.62-5.54-1.85Z"/>
      <path class="cls-1" d="M698.26,234.12c-3.43,0-6.3-1-8.53-2.98-1.64-1.45-3.59-4.1-3.59-8.45v-69.28c0-4.34,1.95-6.99,3.59-8.44,2.23-1.98,5.1-2.98,8.53-2.98s6.15.98,8.44,2.9c2.49,2.1,3.8,5.04,3.8,8.53v69.28c0,3.48-1.31,6.43-3.79,8.52-2.29,1.93-5.13,2.91-8.44,2.91ZM698.26,150.98c-1.75,0-2.36.54-2.55.71-.18.16-.57.5-.57,1.72v69.28c0,1.21.38,1.55.57,1.72.2.18.8.71,2.55.71,1.53,0,2.24-.45,2.65-.79.22-.18.59-.5.59-1.64v-69.28c0-1.14-.37-1.45-.59-1.64-.4-.34-1.11-.79-2.64-.79Z"/>
    </g>
    <g>
      <path class="cls-1" d="M727.24,223.84c-3.23-3.08-4.85-7.39-4.85-12.93v-46.19c0-5.39,1.56-9.58,4.68-12.59,3.12-3,7.45-4.5,12.99-4.5h16.17c8.85,0,16.51,1.62,22.98,4.85s11.41,7.89,14.84,13.97c3.42,6.08,5.14,13.32,5.14,21.71s-1.71,15.61-5.14,21.65c-3.43,6.04-8.35,10.66-14.78,13.86-6.43,3.2-14.11,4.79-23.04,4.79h-15.36c-5.85,0-10.39-1.54-13.63-4.62ZM755.07,216.57c9.62,0,16.78-2.33,21.48-6.99,4.69-4.66,7.04-11.8,7.04-21.42s-2.37-16.8-7.1-21.53c-4.73-4.73-11.88-7.1-21.42-7.1h-12.36c-1.54,0-2.75.5-3.64,1.5-.89,1-1.33,2.39-1.33,4.16v45.73c0,1.77.44,3.16,1.33,4.16.88,1,2.1,1.5,3.64,1.5h12.36Z"/>
      <path class="cls-1" d="M756.22,232.96h-15.36c-7.02,0-12.65-1.97-16.73-5.86-4.14-3.95-6.25-9.39-6.25-16.19v-46.19c0-6.63,2.04-11.96,6.05-15.83,3.97-3.82,9.39-5.76,16.11-5.76h16.17c9.52,0,17.92,1.79,24.99,5.32s12.88,8.94,16.75,15.79c3.79,6.74,5.72,14.78,5.72,23.92s-1.93,17.17-5.72,23.87c-3.86,6.81-9.48,12.08-16.69,15.67-7.02,3.49-15.45,5.26-25.04,5.26ZM740.06,152.13c-4.37,0-7.6,1.06-9.87,3.24-2.22,2.14-3.3,5.19-3.3,9.34v46.19c0,4.3,1.13,7.46,3.45,9.67h0c2.39,2.27,5.83,3.38,10.52,3.38h15.36c8.19,0,15.26-1.45,21.03-4.32,5.66-2.81,9.87-6.75,12.87-12.04,3.02-5.33,4.55-11.87,4.55-19.43s-1.53-14.13-4.56-19.5c-3-5.33-7.23-9.31-12.93-12.15-5.81-2.9-12.86-4.37-20.97-4.37h-16.17ZM755.07,221.07h-12.36c-3.59,0-5.79-1.64-7.01-3.02-1.63-1.84-2.46-4.24-2.46-7.14v-45.73c0-2.89.83-5.29,2.46-7.14,1.75-1.98,4.17-3.02,7.01-3.02h12.36c10.74,0,19.01,2.83,24.6,8.42,5.59,5.59,8.42,13.9,8.42,24.72s-2.82,19.1-8.38,24.61c-5.55,5.5-13.84,8.29-24.65,8.29ZM742.42,212.05c.05.01.15.02.29.02h12.36c8.35,0,14.51-1.91,18.31-5.68,3.79-3.76,5.71-9.89,5.71-18.22s-1.95-14.52-5.78-18.35c-3.84-3.84-9.97-5.78-18.24-5.78h-12.36c-.14,0-.24.01-.29.02-.06.12-.17.47-.17,1.14v45.73c0,.68.12,1.02.17,1.14Z"/>
    </g>
    <g>
      <path class="cls-1" d="M815.8,223.84c-3.23-3.08-4.85-7.39-4.85-12.93v-46.19c0-5.39,1.56-9.58,4.68-12.59,3.12-3,7.45-4.5,12.99-4.5h35.91c2.31,0,4.08.52,5.31,1.56,1.23,1.04,1.85,2.52,1.85,4.45s-.63,3.29-1.91,4.33c-1.27,1.04-3.02,1.56-5.25,1.56h-33.25c-1.54,0-2.75.5-3.64,1.5-.89,1-1.33,2.39-1.33,4.16v16.05h29.44c2.31,0,4.08.52,5.31,1.56,1.23,1.04,1.85,2.52,1.85,4.45s-.64,3.29-1.91,4.33c-1.27,1.04-3.02,1.56-5.25,1.56h-29.44v17.78c0,1.77.44,3.16,1.33,4.16.88,1,2.1,1.5,3.64,1.5h35.79c2.31,0,4.08.52,5.31,1.56,1.23,1.04,1.85,2.52,1.85,4.45s-.63,3.29-1.91,4.33c-1.27,1.04-3.02,1.56-5.25,1.56h-37.64c-5.85,0-10.39-1.54-13.63-4.62Z"/>
      <path class="cls-1" d="M867.07,232.96h-37.64c-7.02,0-12.65-1.97-16.73-5.86-4.14-3.95-6.25-9.39-6.25-16.19v-46.19c0-6.63,2.04-11.96,6.05-15.83,3.97-3.82,9.39-5.76,16.11-5.76h35.91c3.39,0,6.15.88,8.21,2.62,1.57,1.33,3.45,3.78,3.45,7.89,0,3.21-1.23,5.91-3.56,7.81-2.09,1.71-4.82,2.58-8.1,2.58h-33.25c-.14,0-.24.01-.29.02-.06.12-.17.47-.17,1.14v11.55h24.94c3.39,0,6.15.88,8.21,2.62,1.57,1.33,3.45,3.77,3.45,7.89,0,3.21-1.23,5.91-3.55,7.81-2.09,1.71-4.82,2.58-8.1,2.58h-24.94v13.28c0,.68.12,1.02.17,1.14.05.01.15.02.29.02h35.79c3.39,0,6.15.88,8.21,2.62,1.57,1.33,3.45,3.77,3.45,7.89,0,3.21-1.23,5.91-3.56,7.81-2.09,1.71-4.81,2.58-8.1,2.58ZM828.62,152.13c-4.37,0-7.6,1.06-9.87,3.24-2.22,2.14-3.3,5.19-3.3,9.34v46.19c0,4.3,1.13,7.46,3.45,9.67h0c2.39,2.27,5.83,3.38,10.52,3.38h37.64c1.12,0,1.98-.19,2.4-.54.11-.09.26-.21.26-.85,0-.8-.19-.96-.25-1.01-.14-.12-.72-.5-2.41-.5h-35.79c-3.59,0-5.79-1.64-7.01-3.02-1.63-1.84-2.46-4.24-2.46-7.14v-22.28h33.94c1.12,0,1.98-.19,2.4-.54.11-.09.25-.21.25-.85,0-.8-.19-.96-.25-1.01-.14-.11-.72-.5-2.41-.5h-33.94v-20.55c0-2.89.83-5.29,2.46-7.14,1.75-1.98,4.17-3.02,7.01-3.02h33.25c1.12,0,1.98-.19,2.41-.54.11-.09.25-.21.25-.85,0-.8-.19-.96-.25-1.01-.13-.11-.72-.5-2.41-.5h-35.91Z"/>
    </g>
  </g>
</svg>