<?xml version="1.0" encoding="UTF-8"?>
<svg id="Camada_1" data-name="Camada 1" xmlns="http://www.w3.org/2000/svg" viewBox="0 0 512 512">
  <defs>
    <style>
      .cls-1 {
        fill: #67baa0;
      }

      .cls-1, .cls-2 {
        stroke-width: 0px;
      }

      .cls-2 {
        fill: #e59429;
      }
    </style>
  </defs>
  <g id="hRUjxh.tif">
    <g>
      <path class="cls-2" d="M63.17,70.93c7.24,6.43,13.72,11.73,19.64,17.59,4.67,4.63,9.74,6.38,16.31,6.28,21.99-.33,43.98-.19,65.97-.07,4.33.02,7.81-1.19,11-4.13,6.86-6.32,13.91-12.42,22.09-19.69,0,3.13,0,4.87,0,6.61,0,29.48-.01,58.96,0,88.43,0,21.74,11.53,39.24,30.58,46.48,19.06,7.25,39.25,1.91,53.79-14.24.42-.46.67-1.07,1.55-2.49,1.27,1.74,1.98,2.9,2.88,3.9,13.44,14.85,33.98,19.85,52.56,12.82,18.44-6.97,30.51-24.43,30.56-44.58.08-34.16.03-68.32.03-102.47,0-1.66,0-3.31,0-5.99,2.54,1.4,4.42,2.09,5.86,3.3,11.83,9.92,19.93,22.29,23.41,37.37.85,3.68.65,7.78.07,11.56-.72,4.74-3.72,8.06-8.37,9.84-6.14,2.35-8.66,7.15-6.71,12.33,1.96,5.21,7.15,7.35,13.2,5.08,12.26-4.61,19.14-13.78,20.71-26.55.65-5.31.37-11-.8-16.22-3.93-17.5-12.58-32.56-25.9-44.58-4.19-3.78-9.28-7.07-14.53-9.08-13.54-5.17-25.53,3.44-25.56,17.93-.08,35.56.01,71.12-.05,106.68-.03,14.94-9.18,26.32-23.28,29.26-15.76,3.29-31.62-7.66-34.32-23.52-.48-2.81.46-3.89,2.8-5.4,5.17-3.35,10.57-6.8,14.63-11.33,7.9-8.82,6.04-17.71-4.32-23.58-10.23-5.79-21.41-6.76-32.66-4.42-5.36,1.11-10.8,3.3-15.4,6.25-7.78,4.99-9.22,12.57-3.37,19.63,4.26,5.15,9.86,9.42,15.51,13.08,3.15,2.04,3.89,3.63,3.15,6.95-3.22,14.38-16.21,23.97-31.07,22.76-14.25-1.16-25.74-13.03-26.29-27.61-.32-8.57-.07-17.15-.07-25.73,0-30.1.05-60.21-.06-90.31,0-2.7-.42-5.76-1.74-8.01-3.01-5.13-9.51-5.49-14.54-1.08-11.14,9.77-22.12,19.72-33.35,29.38-1.69,1.46-4.35,2.5-6.57,2.52-19.96.19-39.93.18-59.89,0-2.09-.02-4.59-1-6.18-2.37-10.98-9.47-21.81-19.12-32.6-28.82-3.53-3.17-7.24-4.99-11.87-2.82-4.41,2.07-5.47,5.93-5.46,10.48.05,50.53.02,101.07.04,151.6,0,7.49,3.71,11.76,9.82,11.5,4.46-.19,8.04-3.31,8.63-7.73.25-1.84.17-3.74.17-5.6,0-41.49,0-82.98,0-124.47,0-1.8,0-3.6,0-6.73Z"/>
      <path class="cls-2" d="M148.82,169.65c-1.61-1.77-3.32-5.08-5.99-6.3-7.83-3.56-16.13-3.37-24.13-.24-5.29,2.08-7.04,6.55-5,11.86,2.16,5.6,6.01,9.78,11.41,12.48,3.93,1.96,7.87,1.83,11.66-.28,6.32-3.51,10.49-8.66,12.05-17.53Z"/>
      <path class="cls-2" d="M88.3,132.61c-.01,6.27,5.26,11.53,11.58,11.56,6.33.03,11.52-5.15,11.56-11.54.04-6.32-5.2-11.57-11.53-11.56-6.33,0-11.59,5.24-11.6,11.53Z"/>
      <path class="cls-2" d="M161.52,144.17c6.36-.04,11.56-5.37,11.45-11.76-.1-6.21-5.21-11.28-11.4-11.34-6.43-.06-11.68,5.13-11.67,11.53,0,6.44,5.2,11.61,11.62,11.57Z"/>
      <path class="cls-2" d="M314.31,72.04c-6.45.26-11.24,5.63-10.86,12.18.36,6.27,5.46,10.88,11.85,10.7,6.45-.18,11.57-5.62,11.21-11.91-.37-6.44-5.7-11.23-12.2-10.97Z"/>
      <path class="cls-2" d="M253.24,94.96c6.53.07,11.7-4.97,11.7-11.42,0-6.46-5.13-11.54-11.63-11.51-6.27.02-11.3,4.93-11.49,11.21-.19,6.41,4.91,11.65,11.42,11.72Z"/>
    </g>
  </g>
  <g>
    <g>
      <path class="cls-1" d="M44.32,350.49c-1.63-1.45-2.45-3.45-2.45-5.99v-68.36c0-6.35,1.84-11.3,5.52-14.84,3.68-3.54,8.78-5.31,15.32-5.31h23.01c13.8,0,24.29,2.86,31.46,8.58,7.17,5.72,10.76,14.12,10.76,25.19s-3.5,19.47-10.49,25.19c-6.99,5.72-17.29,8.58-30.91,8.58h-26.56v20.97c0,2.45-.84,4.43-2.52,5.92-1.68,1.5-3.88,2.25-6.6,2.25s-4.9-.73-6.54-2.18ZM109.69,289.76c0-13.16-7.76-19.75-23.29-19.75h-20.56c-1.82,0-3.25.59-4.29,1.77-1.04,1.18-1.57,2.81-1.57,4.9v32.82h26.42c15.52,0,23.29-6.58,23.29-19.75Z"/>
      <path class="cls-1" d="M50.86,357.67c-3.97,0-7.29-1.16-9.86-3.44h0c-2.7-2.4-4.13-5.77-4.13-9.73v-68.36c0-7.74,2.37-13.94,7.05-18.45,4.62-4.45,10.94-6.71,18.79-6.71h23.01c14.9,0,26.53,3.25,34.58,9.67,8.39,6.69,12.64,16.48,12.64,29.1s-4.15,22.37-12.32,29.06c-7.88,6.44-19.34,9.71-34.08,9.71h-21.56v15.97c0,3.87-1.45,7.21-4.19,9.65-2.62,2.33-5.96,3.52-9.93,3.52ZM47.64,346.75c.26.23,1.03.92,3.22.92s3.01-.74,3.28-.98c.44-.39.85-.93.85-2.19v-25.97h31.56c12.37,0,21.7-2.51,27.75-7.45,5.82-4.76,8.65-11.74,8.65-21.32s-2.9-16.52-8.88-21.28c-6.23-4.97-15.77-7.49-28.34-7.49h-23.01c-5.24,0-9.12,1.28-11.85,3.91-2.68,2.58-3.98,6.26-3.98,11.24v68.36c0,1.57.52,2.03.77,2.25h0ZM86.4,314.5h-31.42v-37.82c0-3.34.95-6.1,2.82-8.22,2-2.26,4.78-3.46,8.03-3.46h20.56c10.56,0,28.29,3.21,28.29,24.75s-17.72,24.75-28.29,24.75ZM64.98,304.5h21.42c16.11,0,18.29-7.45,18.29-14.75,0-12.99-9.24-14.75-18.29-14.75h-20.56c-.39,0-.53.07-.53.07-.16.18-.32.69-.32,1.61v27.82Z"/>
    </g>
    <g>
      <path class="cls-1" d="M147.55,345.86c-3.81-3.63-5.72-8.72-5.72-15.25v-54.47c0-6.35,1.84-11.3,5.52-14.84,3.68-3.54,8.78-5.31,15.32-5.31h42.35c2.72,0,4.81.61,6.26,1.84,1.45,1.23,2.18,2.97,2.18,5.24s-.75,3.88-2.25,5.11-3.56,1.84-6.2,1.84h-39.22c-1.82,0-3.25.59-4.29,1.77-1.04,1.18-1.57,2.81-1.57,4.9v18.93h34.73c2.72,0,4.81.61,6.26,1.84,1.45,1.23,2.18,2.97,2.18,5.24s-.75,3.88-2.25,5.11c-1.5,1.23-3.56,1.84-6.2,1.84h-34.73v20.97c0,2.09.52,3.72,1.57,4.9,1.04,1.18,2.47,1.77,4.29,1.77h42.22c2.72,0,4.81.61,6.26,1.84,1.45,1.23,2.18,2.97,2.18,5.24s-.75,3.88-2.25,5.11c-1.5,1.23-3.56,1.84-6.2,1.84h-44.4c-6.9,0-12.26-1.81-16.07-5.45Z"/>
      <path class="cls-1" d="M208.01,356.31h-44.4c-8.2,0-14.76-2.3-19.52-6.83-4.82-4.59-7.27-10.94-7.27-18.87v-54.47c0-7.74,2.37-13.94,7.05-18.45,4.62-4.45,10.94-6.71,18.79-6.71h42.35c3.92,0,7.12,1.02,9.49,3.02,1.81,1.52,3.96,4.33,3.96,9.06,0,3.69-1.41,6.79-4.08,8.98-2.41,1.97-5.56,2.97-9.36,2.97h-39.22c-.39,0-.53.07-.53.07-.16.18-.32.69-.32,1.61v13.93h29.73c3.92,0,7.11,1.01,9.49,3.02,1.81,1.53,3.96,4.33,3.96,9.06,0,3.69-1.41,6.79-4.08,8.98-2.41,1.97-5.56,2.97-9.36,2.97h-29.73v15.97c0,.91.17,1.43.31,1.59.02.02.16.09.55.09h42.22c3.92,0,7.11,1.01,9.49,3.02,1.81,1.53,3.96,4.33,3.96,9.06,0,3.69-1.41,6.79-4.08,8.98-2.41,1.97-5.56,2.97-9.36,2.97ZM162.66,260.98c-5.24,0-9.12,1.28-11.85,3.91-2.68,2.58-3.98,6.26-3.98,11.24v54.47c0,5.16,1.36,8.96,4.17,11.63h0c2.87,2.74,7,4.07,12.62,4.07h44.4c1.4,0,2.47-.25,3.03-.71.17-.14.41-.34.41-1.24,0-1.08-.28-1.32-.4-1.42-.23-.2-1-.66-3.04-.66h-42.22c-4.12,0-6.64-1.88-8.04-3.46-1.87-2.11-2.82-4.87-2.82-8.21v-25.97h39.73c1.4,0,2.47-.25,3.03-.71.17-.14.41-.34.41-1.24,0-1.08-.28-1.32-.4-1.42-.23-.2-1-.66-3.04-.66h-39.73v-23.93c0-3.34.95-6.1,2.82-8.22,2-2.26,4.78-3.46,8.03-3.46h39.22c1.4,0,2.47-.25,3.03-.71.17-.14.41-.34.41-1.24,0-1.08-.28-1.32-.41-1.42-.23-.2-1-.66-3.04-.66h-42.35Z"/>
    </g>
    <g>
      <path class="cls-1" d="M263.44,350.49c-1.63-1.45-2.45-3.45-2.45-5.99v-74.49h-26.28c-2.63,0-4.7-.61-6.2-1.84s-2.25-2.93-2.25-5.11.73-4.02,2.18-5.24c1.45-1.23,3.54-1.84,6.26-1.84h70.68c2.72,0,4.81.61,6.26,1.84,1.45,1.23,2.18,2.97,2.18,5.24s-.75,3.88-2.25,5.11-3.56,1.84-6.2,1.84h-26.28v74.49c0,2.45-.84,4.43-2.52,5.92-1.68,1.5-3.88,2.25-6.6,2.25s-4.9-.73-6.54-2.18Z"/>
      <path class="cls-1" d="M269.97,357.67c-3.97,0-7.29-1.16-9.86-3.44h0c-2.7-2.4-4.13-5.77-4.13-9.73v-69.49h-21.28c-3.8,0-6.95-1-9.36-2.97-2.67-2.18-4.08-5.29-4.08-8.98,0-4.74,2.15-7.54,3.96-9.07,2.37-2,5.56-3.02,9.49-3.02h70.68c3.92,0,7.12,1.02,9.49,3.02,1.81,1.52,3.96,4.33,3.96,9.06,0,3.69-1.41,6.79-4.08,8.98-2.41,1.97-5.56,2.97-9.36,2.97h-21.28v69.49c0,3.87-1.45,7.21-4.19,9.65-2.62,2.33-5.96,3.52-9.93,3.52ZM234.7,260.98c-2.04,0-2.8.46-3.04.66-.12.1-.41.34-.41,1.42,0,.9.24,1.09.41,1.24.56.46,1.63.71,3.03.71h31.28v79.49c0,1.57.52,2.03.77,2.25h0c.26.23,1.03.92,3.22.92s3.01-.74,3.28-.98c.44-.39.85-.93.85-2.19v-79.49h31.28c1.4,0,2.47-.25,3.03-.71.17-.14.41-.34.41-1.24,0-1.08-.28-1.32-.41-1.42-.23-.2-1-.66-3.04-.66h-70.68Z"/>
    </g>
    <g>
      <path class="cls-1" d="M44.32,470.08c-1.63-1.45-2.45-3.45-2.45-5.99v-68.36c0-6.35,1.84-11.3,5.52-14.84,3.68-3.54,8.78-5.31,15.32-5.31h23.01c13.8,0,24.29,2.86,31.46,8.58,7.17,5.72,10.76,14.12,10.76,25.19s-3.5,19.47-10.49,25.19c-6.99,5.72-17.29,8.58-30.91,8.58h-26.56v20.97c0,2.45-.84,4.43-2.52,5.92-1.68,1.5-3.88,2.25-6.6,2.25s-4.9-.73-6.54-2.18ZM109.69,409.35c0-13.16-7.76-19.75-23.29-19.75h-20.56c-1.82,0-3.25.59-4.29,1.77-1.04,1.18-1.57,2.81-1.57,4.9v32.82h26.42c15.52,0,23.29-6.58,23.29-19.75Z"/>
      <path class="cls-1" d="M50.86,477.26c-3.97,0-7.29-1.16-9.86-3.44h0c-2.7-2.4-4.13-5.77-4.13-9.73v-68.36c0-7.74,2.37-13.94,7.05-18.45,4.62-4.45,10.94-6.71,18.79-6.71h23.01c14.9,0,26.53,3.25,34.58,9.67,8.39,6.69,12.64,16.48,12.64,29.1s-4.15,22.37-12.32,29.06c-7.88,6.44-19.34,9.71-34.08,9.71h-21.56v15.97c0,3.87-1.45,7.21-4.19,9.65-2.62,2.33-5.96,3.52-9.93,3.52ZM47.64,466.34c.26.23,1.03.92,3.22.92s3.01-.74,3.28-.98c.44-.39.85-.93.85-2.19v-25.97h31.56c12.37,0,21.7-2.51,27.75-7.45,5.82-4.76,8.65-11.74,8.65-21.32s-2.9-16.52-8.88-21.28c-6.23-4.97-15.77-7.49-28.34-7.49h-23.01c-5.24,0-9.12,1.28-11.85,3.91-2.68,2.58-3.98,6.26-3.98,11.24v68.36c0,1.57.52,2.03.77,2.25h0ZM86.4,434.09h-31.42v-37.82c0-3.34.95-6.1,2.82-8.22,2-2.26,4.78-3.46,8.03-3.46h20.56c10.56,0,28.29,3.21,28.29,24.75s-17.72,24.75-28.29,24.75ZM64.98,424.09h21.42c16.11,0,18.29-7.45,18.29-14.75,0-12.99-9.24-14.75-18.29-14.75h-20.56c-.39,0-.53.07-.53.07-.16.18-.32.69-.32,1.61v27.82Z"/>
    </g>
    <g>
      <path class="cls-1" d="M141.83,395.73c0-6.35,1.84-11.3,5.52-14.84,3.68-3.54,8.78-5.31,15.32-5.31h24.24c13.53,0,23.74,2.63,30.64,7.9,6.9,5.27,10.35,13.12,10.35,23.56,0,9.72-2.88,17.29-8.65,22.74-5.77,5.45-13.51,8.17-23.22,8.17l20.7,20.56c1.63,1.63,2.45,3.5,2.45,5.58s-.95,4.09-2.86,5.72c-2,1.54-3.95,2.31-5.86,2.31-2.63,0-5.04-1.18-7.22-3.54l-29.42-30.1h-13.89v25.6c0,2.54-.86,4.54-2.59,5.99-1.73,1.45-3.9,2.18-6.54,2.18s-4.9-.73-6.54-2.18c-1.63-1.45-2.45-3.45-2.45-5.99v-68.36ZM186.36,424.46c5.99,0,10.67-.59,14.03-1.77,3.36-1.18,5.74-3.02,7.15-5.52,1.41-2.5,2.11-5.88,2.11-10.15,0-6.17-1.89-10.62-5.65-13.35-3.77-2.72-9.65-4.09-17.64-4.09h-20.56c-1.82,0-3.25.59-4.29,1.77-1.04,1.18-1.57,2.81-1.57,4.9v28.19h26.42Z"/>
      <path class="cls-1" d="M150.82,477.26c-3.97,0-7.29-1.16-9.86-3.44-2.7-2.4-4.13-5.77-4.13-9.73v-68.36c0-7.74,2.37-13.94,7.05-18.45,4.62-4.45,10.94-6.71,18.79-6.71h24.24c14.58,0,25.91,3,33.67,8.92,8.17,6.24,12.32,15.5,12.32,27.54,0,11.1-3.44,19.97-10.21,26.38-4.32,4.08-9.59,6.87-15.74,8.33l13.31,13.22c2.57,2.57,3.93,5.73,3.93,9.13,0,3.64-1.59,6.93-4.6,9.52l-.2.16c-2.89,2.23-5.88,3.36-8.91,3.36-2.79,0-6.93-.89-10.84-5.09l-27.9-28.54h-6.79v20.6c0,4.02-1.51,7.41-4.37,9.82-2.65,2.23-5.93,3.35-9.76,3.35ZM162.66,380.57c-5.24,0-9.12,1.28-11.85,3.91-2.68,2.58-3.98,6.26-3.98,11.24v68.36c0,1.57.52,2.03.77,2.25s1.03.92,3.22.92c1.9,0,2.81-.57,3.32-1.01.42-.35.81-.86.81-2.17v-30.6h20.99l30.98,31.7c1.6,1.73,2.79,1.93,3.54,1.93.91,0,1.95-.63,2.69-1.19,1.02-.91,1.02-1.51,1.02-1.84,0-.52-.12-1.18-.99-2.05l-29.29-29.1h12.13c8.47,0,14.94-2.23,19.79-6.81,4.76-4.5,7.08-10.75,7.08-19.11,0-8.87-2.74-15.28-8.38-19.59-5.98-4.56-15.27-6.87-27.61-6.87h-24.24ZM186.36,429.46h-31.42v-33.19c0-3.34.95-6.1,2.82-8.22,2-2.26,4.78-3.46,8.03-3.46h20.56c9.15,0,15.88,1.65,20.56,5.03,5.12,3.71,7.72,9.56,7.72,17.4,0,5.19-.9,9.31-2.75,12.6-2.02,3.58-5.33,6.19-9.85,7.78-3.93,1.38-9.06,2.05-15.68,2.05ZM164.94,419.46h21.42c5.4,0,9.56-.5,12.37-1.49,2.2-.77,3.65-1.84,4.45-3.25.96-1.7,1.47-4.36,1.47-7.69,0-6.7-2.7-8.65-3.58-9.29-1.98-1.43-6.14-3.14-14.71-3.14h-20.56c-.39,0-.53.07-.53.07-.16.18-.32.69-.32,1.61v23.19Z"/>
    </g>
    <g>
      <path class="cls-1" d="M248.32,470.08c-1.63-1.45-2.45-3.45-2.45-5.99v-81.71c0-2.54.82-4.54,2.45-5.99,1.63-1.45,3.81-2.18,6.54-2.18s4.81.73,6.54,2.18c1.72,1.45,2.59,3.45,2.59,5.99v81.71c0,2.54-.86,4.54-2.59,5.99-1.73,1.45-3.9,2.18-6.54,2.18s-4.9-.73-6.54-2.18Z"/>
      <path class="cls-1" d="M254.86,477.26c-3.97,0-7.29-1.16-9.86-3.44h0c-2.7-2.4-4.13-5.77-4.13-9.73v-81.71c0-3.96,1.43-7.33,4.13-9.73,2.57-2.29,5.89-3.44,9.86-3.44s7.11,1.13,9.75,3.35c2.86,2.41,4.37,5.81,4.37,9.82v81.71c0,4.02-1.51,7.41-4.37,9.82-2.65,2.23-5.93,3.35-9.76,3.35ZM251.64,466.34c.26.23,1.03.92,3.22.92,1.9,0,2.81-.57,3.32-1.01.42-.35.81-.86.81-2.17v-81.71c0-1.31-.39-1.81-.81-2.17-.51-.43-1.41-1-3.31-1-2.18,0-2.96.69-3.22.92-.25.22-.77.69-.77,2.25v81.71c0,1.57.52,2.03.77,2.25h0Z"/>
    </g>
    <g>
      <path class="cls-1" d="M289.04,465.45c-3.81-3.63-5.72-8.72-5.72-15.25v-54.47c0-6.35,1.84-11.3,5.52-14.84,3.68-3.54,8.78-5.31,15.32-5.31h19.06c10.44,0,19.47,1.91,27.1,5.72s13.46,9.31,17.5,16.48c4.04,7.17,6.06,15.71,6.06,25.6s-2.02,18.41-6.06,25.53c-4.04,7.13-9.85,12.58-17.43,16.34-7.58,3.77-16.64,5.65-27.17,5.65h-18.11c-6.9,0-12.26-1.81-16.07-5.45ZM321.86,456.87c11.35,0,19.79-2.75,25.33-8.24,5.54-5.49,8.31-13.91,8.31-25.26s-2.79-19.81-8.38-25.4-14.01-8.38-25.26-8.38h-14.57c-1.82,0-3.25.59-4.29,1.77-1.04,1.18-1.57,2.81-1.57,4.9v53.93c0,2.09.52,3.72,1.57,4.9,1.04,1.18,2.47,1.77,4.29,1.77h14.57Z"/>
      <path class="cls-1" d="M323.22,475.9h-18.11c-8.2,0-14.76-2.3-19.52-6.83-4.82-4.59-7.27-10.94-7.27-18.87v-54.47c0-7.74,2.37-13.94,7.05-18.45,4.62-4.45,10.94-6.71,18.79-6.71h19.06c11.17,0,21.04,2.1,29.34,6.25s15.1,10.47,19.62,18.5c4.45,7.9,6.7,17.34,6.7,28.06s-2.26,20.14-6.71,28c-4.52,7.98-11.1,14.15-19.56,18.35-8.24,4.1-18.13,6.17-29.39,6.17ZM304.15,380.57c-5.24,0-9.12,1.28-11.85,3.91-2.68,2.58-3.98,6.26-3.98,11.24v54.47c0,5.16,1.36,8.96,4.17,11.63h0c2.87,2.74,7,4.07,12.62,4.07h18.11c9.7,0,18.1-1.73,24.94-5.13,6.73-3.34,11.74-8.03,15.31-14.33,3.59-6.33,5.41-14.09,5.41-23.07s-1.82-16.77-5.42-23.15c-3.57-6.34-8.6-11.07-15.38-14.46-6.89-3.45-15.26-5.19-24.86-5.19h-19.06ZM321.86,461.87h-14.57c-4.12,0-6.64-1.88-8.04-3.46-1.87-2.11-2.82-4.87-2.82-8.21v-53.93c0-3.34.95-6.1,2.82-8.22,2-2.26,4.78-3.46,8.03-3.46h14.57c12.58,0,22.27,3.31,28.8,9.84,6.53,6.53,9.84,16.26,9.84,28.93s-3.29,22.37-9.79,28.81c-6.48,6.43-16.19,9.69-28.85,9.69ZM307.28,394.6c-.39,0-.53.07-.53.07-.16.18-.32.69-.32,1.61v53.93c0,.91.17,1.43.31,1.59.02.02.16.09.55.09h14.57c9.93,0,17.27-2.28,21.81-6.79,4.53-4.49,6.83-11.8,6.83-21.71s-2.33-17.28-6.91-21.86-11.9-6.91-21.73-6.91h-14.57Z"/>
    </g>
    <g>
      <path class="cls-1" d="M393.49,465.45c-3.81-3.63-5.72-8.72-5.72-15.25v-54.47c0-6.35,1.84-11.3,5.52-14.84,3.68-3.54,8.78-5.31,15.32-5.31h42.35c2.72,0,4.81.61,6.26,1.84,1.45,1.23,2.18,2.97,2.18,5.24s-.75,3.88-2.25,5.11-3.56,1.84-6.2,1.84h-39.22c-1.82,0-3.25.59-4.29,1.77-1.04,1.18-1.57,2.81-1.57,4.9v18.93h34.73c2.72,0,4.81.61,6.26,1.84,1.45,1.23,2.18,2.97,2.18,5.24s-.75,3.88-2.25,5.11c-1.5,1.23-3.56,1.84-6.2,1.84h-34.73v20.97c0,2.09.52,3.72,1.57,4.9,1.04,1.18,2.47,1.77,4.29,1.77h42.22c2.72,0,4.81.61,6.26,1.84,1.45,1.23,2.18,2.97,2.18,5.24s-.75,3.88-2.25,5.11c-1.5,1.23-3.56,1.84-6.2,1.84h-44.4c-6.9,0-12.26-1.81-16.07-5.45Z"/>
      <path class="cls-1" d="M453.95,475.9h-44.4c-8.2,0-14.76-2.3-19.52-6.83-4.82-4.59-7.27-10.94-7.27-18.87v-54.47c0-7.74,2.37-13.94,7.05-18.45,4.62-4.45,10.94-6.71,18.79-6.71h42.35c3.92,0,7.12,1.02,9.49,3.02,1.81,1.52,3.96,4.33,3.96,9.06,0,3.69-1.41,6.79-4.08,8.98-2.41,1.97-5.56,2.97-9.36,2.97h-39.22c-.39,0-.53.07-.53.07-.16.18-.32.69-.32,1.61v13.93h29.73c3.92,0,7.11,1.01,9.49,3.02,1.81,1.53,3.96,4.33,3.96,9.06,0,3.69-1.41,6.79-4.08,8.98-2.41,1.97-5.56,2.97-9.36,2.97h-29.73v15.97c0,.91.17,1.43.31,1.59.02.02.16.09.55.09h42.22c3.92,0,7.11,1.01,9.49,3.02,1.81,1.53,3.96,4.33,3.96,9.06,0,3.69-1.41,6.79-4.08,8.98-2.41,1.97-5.56,2.97-9.36,2.97ZM408.6,380.57c-5.24,0-9.12,1.28-11.85,3.91-2.68,2.58-3.98,6.26-3.98,11.24v54.47c0,5.16,1.36,8.96,4.17,11.63h0c2.87,2.74,7,4.07,12.62,4.07h44.4c1.4,0,2.47-.25,3.03-.71.17-.14.41-.34.41-1.24,0-1.08-.28-1.32-.4-1.42-.23-.2-1-.66-3.04-.66h-42.22c-4.12,0-6.64-1.88-8.04-3.46-1.87-2.11-2.82-4.87-2.82-8.21v-25.97h39.73c1.4,0,2.47-.25,3.03-.71.17-.14.41-.34.41-1.24,0-1.08-.28-1.32-.4-1.42-.23-.2-1-.66-3.04-.66h-39.73v-23.93c0-3.34.95-6.1,2.82-8.22,2-2.26,4.78-3.46,8.03-3.46h39.22c1.4,0,2.47-.25,3.03-.71.17-.14.41-.34.41-1.24,0-1.08-.28-1.32-.41-1.42-.23-.2-1-.66-3.04-.66h-42.35Z"/>
    </g>
  </g>
</svg>